<?xml version="1.0" encoding="UTF-8" standalone="no"?>
<!DOCTYPE svg PUBLIC "-//W3C//DTD SVG 1.1//EN" "http://www.w3.org/Graphics/SVG/1.1/DTD/svg11.dtd">
<svg width="100%" height="100%" viewBox="0 0 1167 591" version="1.1" xmlns="http://www.w3.org/2000/svg" xmlns:xlink="http://www.w3.org/1999/xlink" xml:space="preserve" xmlns:serif="http://www.serif.com/" style="fill-rule:evenodd;clip-rule:evenodd;stroke-linejoin:round;stroke-miterlimit:2;">
    <g transform="matrix(1,0,0,1,-115.615,-2882.74)">
        <g id="Vrstva-1" serif:id="Vrstva 1" transform="matrix(4.16667,0,0,4.16667,0,0)">
            <g transform="matrix(1,0,0,1,99.8638,818.042)">
                <path d="M0,-110.711L0,-110.708L0,-110.711ZM-1.308,0.237L-1.237,0.248C-1.215,0.252 -0.551,0.349 2.478,0.242C5.531,0.132 11.441,-0.928 15.932,-2.172C19.781,-3.241 23.35,-5.617 24.055,-6.417C23.792,-6.517 23.287,-6.672 22.761,-6.834C20.636,-7.487 16.681,-8.704 11.009,-11.556C7.462,-13.342 4.99,-17.464 3.662,-23.806C2.683,-28.48 2.725,-32.699 2.726,-32.741L2.834,-36.106L3.208,-36.106L3.208,-38.688L3.905,-38.688L3.905,-46.531L3.029,-47.259L5.564,-49.735L3.368,-51.465L1.798,-48.432L-0.159,-49.084L-0.159,-79.896L0.207,-79.929C6.716,-80.53 17.396,-82.157 18.345,-83.964C18.409,-84.085 18.406,-84.186 18.335,-84.312C16.987,-86.709 5.635,-87.93 1.375,-88.197L1.022,-88.22L0.999,-88.571C0.539,-95.428 1.543,-98.073 2.467,-99.085C2.709,-99.351 2.94,-99.499 3.124,-99.581L3.124,-100.728L3.326,-100.844C4.167,-101.327 5.502,-102.37 5.502,-103.11C5.502,-104.072 4.605,-104.471 4.567,-104.487L4.354,-104.58L4.325,-104.813C4.048,-107.258 3.282,-108.989 2.111,-109.82C1.252,-110.429 0.481,-110.35 0.449,-110.346L0.038,-110.299L0.003,-110.675C-0.059,-110.763 -0.292,-110.927 -0.522,-111.047L-2.098,-111.047C-2.328,-110.927 -2.561,-110.763 -2.623,-110.676L-2.655,-110.292L-3.072,-110.346C-3.104,-110.349 -3.963,-110.438 -4.875,-109.712C-5.963,-108.845 -6.678,-107.151 -6.941,-104.813L-6.968,-104.578L-7.185,-104.486C-7.221,-104.471 -8.118,-104.072 -8.118,-103.11C-8.118,-102.368 -6.786,-101.325 -5.945,-100.844L-5.744,-100.728L-5.744,-99.581C-5.56,-99.499 -5.329,-99.351 -5.086,-99.085C-4.163,-98.073 -3.157,-95.428 -3.615,-88.572L-3.638,-88.22L-3.991,-88.197C-8.251,-87.93 -19.603,-86.709 -20.951,-84.311C-21.022,-84.185 -21.025,-84.084 -20.961,-83.963C-20.014,-82.157 -9.333,-80.53 -2.822,-79.929L-2.458,-79.896L-2.458,-49.084L-4.414,-48.432L-5.987,-51.465L-8.181,-49.735L-5.649,-47.258L-6.525,-46.531L-6.525,-38.688L-5.824,-38.688L-5.824,-36.106L-5.45,-36.106L-5.341,-32.749C-5.341,-32.699 -5.298,-28.48 -6.278,-23.806C-7.607,-17.464 -10.08,-13.342 -13.629,-11.556C-19.304,-8.703 -23.258,-7.486 -25.382,-6.833C-25.9,-6.674 -26.396,-6.521 -26.67,-6.413C-25.956,-5.608 -22.391,-3.239 -18.547,-2.171C-14.057,-0.928 -8.147,0.132 -5.093,0.242C-2.064,0.349 -1.4,0.251 -1.374,0.248L-1.308,0.237ZM-2.707,1.096C-3.277,1.096 -4.058,1.083 -5.122,1.046C-8.229,0.934 -14.22,-0.14 -18.762,-1.397C-22.778,-2.513 -27.241,-5.334 -27.555,-6.339C-27.614,-6.526 -27.582,-6.714 -27.466,-6.852C-27.262,-7.096 -26.815,-7.233 -25.619,-7.601C-23.517,-8.247 -19.605,-9.451 -13.99,-12.274C-6.026,-16.282 -6.143,-32.566 -6.145,-32.731L-6.228,-35.302L-6.628,-35.302L-6.628,-37.884L-7.329,-37.884L-7.329,-46.908L-6.848,-47.308L-9.396,-49.801L-5.722,-52.698L-4.017,-49.412L-3.261,-49.663L-3.261,-79.163C-6.183,-79.446 -20.285,-80.944 -21.673,-83.59C-21.864,-83.954 -21.857,-84.34 -21.652,-84.705C-19.941,-87.748 -7.106,-88.789 -4.395,-88.977C-3.817,-98.469 -6.15,-98.877 -6.174,-98.88L-6.566,-98.89L-6.547,-99.281L-6.547,-100.268C-7.18,-100.661 -8.922,-101.858 -8.922,-103.11C-8.922,-104.265 -8.115,-104.881 -7.714,-105.115C-7.401,-107.611 -6.606,-109.376 -5.351,-110.36C-4.514,-111.016 -3.692,-111.139 -3.267,-111.152C-3.045,-111.451 -2.638,-111.682 -2.366,-111.812L-2.284,-111.851L-0.336,-111.851L-0.253,-111.812C0.018,-111.682 0.426,-111.451 0.647,-111.152C1.073,-111.139 1.895,-111.016 2.731,-110.36C3.988,-109.376 4.784,-107.612 5.098,-105.115C5.499,-104.881 6.306,-104.265 6.306,-103.11C6.306,-101.858 4.561,-100.66 3.928,-100.268L3.928,-98.889L3.536,-98.879C3.53,-98.877 1.198,-98.469 1.778,-88.977C4.49,-88.789 17.325,-87.748 19.036,-84.705C19.241,-84.339 19.248,-83.954 19.057,-83.59C17.667,-80.944 3.567,-79.446 0.645,-79.163L0.645,-49.663L1.4,-49.412L3.101,-52.698L6.781,-49.801L4.229,-47.307L4.709,-46.908L4.709,-37.884L4.012,-37.884L4.012,-35.302L3.612,-35.302L3.529,-32.723C3.527,-32.566 3.414,-16.28 11.371,-12.273C16.982,-9.452 20.895,-8.249 22.997,-7.602C24.276,-7.209 24.653,-7.085 24.847,-6.852C24.962,-6.714 24.994,-6.526 24.936,-6.339C24.621,-5.333 20.159,-2.512 16.146,-1.398L16.146,-1.397C11.604,-0.14 5.613,0.934 2.506,1.046C-0.184,1.14 -1.069,1.077 -1.308,1.05C-1.453,1.066 -1.833,1.096 -2.707,1.096" style="fill:white;fill-rule:nonzero;"/>
            </g>
            <g transform="matrix(1,0,0,1,135.622,710.321)">
                <path d="M0,104.687C-10.479,112.129 -23.266,116.523 -37.068,116.523C-72.457,116.523 -101.248,87.732 -101.248,52.343C-101.248,16.955 -72.457,-11.836 -37.068,-11.836C-15.226,-11.836 4.093,-0.86 15.69,15.858L22.415,15.858C10.119,-4.115 -11.942,-17.462 -37.068,-17.462C-75.559,-17.462 -106.874,13.852 -106.874,52.343C-106.874,90.834 -75.559,122.149 -37.068,122.149C-19.405,122.149 -3.265,115.542 9.043,104.687L0,104.687Z" style="fill:white;"/>
            </g>
            <g transform="matrix(1,0,0,1,131.017,766.706)">
                <path d="M0,-29.264C0.163,-29.264 0.351,-29.273 0.566,-29.29C0.78,-29.308 0.989,-29.299 1.191,-29.264C1.394,-29.229 1.562,-29.16 1.697,-29.055C1.832,-28.95 1.9,-28.792 1.9,-28.583L1.9,-0.638C1.9,-0.183 1.681,0.044 1.242,0.044C0.804,0.044 0.584,-0.183 0.584,-0.638L0.584,-27.849L-3.117,-27.849C-3.539,-27.849 -3.75,-28.093 -3.75,-28.583C-3.75,-28.792 -3.685,-28.95 -3.556,-29.055C-3.425,-29.16 -3.263,-29.229 -3.068,-29.264C-2.874,-29.299 -2.67,-29.308 -2.459,-29.29C-2.248,-29.273 -2.062,-29.264 -1.899,-29.264L0,-29.264Z" style="fill:white;fill-rule:nonzero;"/>
            </g>
            <g transform="matrix(1,0,0,1,162.385,756.315)">
                <path d="M-12.713,-8.44L0.049,-8.44C0.601,-8.44 1.128,-8.554 1.632,-8.782C2.135,-9.008 2.574,-9.332 2.947,-9.752C3.32,-10.17 3.621,-10.651 3.849,-11.193C4.075,-11.735 4.189,-12.32 4.189,-12.95C4.189,-14.208 3.783,-15.274 2.972,-16.148L2.533,-16.62L2.484,-16.567C1.737,-17.161 0.909,-17.459 0,-17.459L-12.713,-17.459C-13.135,-17.459 -13.346,-17.703 -13.346,-18.193C-13.346,-18.647 -13.135,-18.874 -12.713,-18.874L0,-18.874C1.429,-18.874 2.68,-18.35 3.751,-17.301L3.897,-17.144C4.969,-15.991 5.504,-14.592 5.504,-12.95C5.504,-11.377 4.969,-9.979 3.897,-8.755L3.849,-8.755C3.783,-8.685 3.718,-8.632 3.654,-8.598L3.021,-7.917L3.799,-7.497C5.358,-6.659 6.576,-5.479 7.453,-3.958C8.33,-2.438 8.769,-0.786 8.769,0.997C8.769,2.289 8.532,3.505 8.062,4.64C7.591,5.777 6.958,6.773 6.162,7.628C5.366,8.485 4.44,9.167 3.386,9.673C2.33,10.181 1.202,10.434 0,10.434L-12.713,10.434C-13.135,10.434 -13.346,10.207 -13.346,9.752C-13.346,9.333 -13.135,9.088 -12.713,9.018L0,9.018C1.006,9.018 1.957,8.808 2.85,8.389C3.743,7.969 4.53,7.402 5.212,6.685C5.894,5.969 6.437,5.122 6.844,4.143C7.25,3.164 7.453,2.116 7.453,0.997C7.453,-0.086 7.258,-1.118 6.869,-2.096C6.479,-3.075 5.943,-3.932 5.261,-4.666C4.579,-5.4 3.792,-5.976 2.898,-6.396C2.005,-6.816 1.072,-7.025 0.098,-7.025L-12.713,-7.025C-13.135,-7.025 -13.346,-7.269 -13.346,-7.759C-13.346,-8.213 -13.135,-8.44 -12.713,-8.44Z" style="fill:white;fill-rule:nonzero;"/>
            </g>
            <g transform="matrix(1,0,0,1,186.838,749.186)">
                <path d="M0,5.766C0.259,5.836 0.454,5.87 0.584,5.87L16.561,5.87L16.561,-8.075C16.561,-8.564 16.772,-8.809 17.194,-8.809C17.389,-8.809 17.551,-8.731 17.682,-8.573C17.811,-8.416 17.876,-8.25 17.876,-8.075L17.876,16.881C17.876,17.336 17.649,17.563 17.194,17.563C16.772,17.563 16.561,17.336 16.561,16.881L16.561,7.129L0.584,7.129C0.129,7.129 -0.292,7.025 -0.682,6.814L-0.78,6.762C-1.201,6.483 -1.526,6.124 -1.754,5.687C-1.98,5.25 -2.095,4.787 -2.095,4.298C-2.095,4.019 -2.062,3.766 -1.997,3.537C-1.932,3.311 -1.851,3.075 -1.754,2.83L5.942,-11.483C6.072,-11.692 6.25,-11.797 6.479,-11.797C6.64,-11.797 6.778,-11.736 6.893,-11.614C7.006,-11.492 7.063,-11.343 7.063,-11.169C7.063,-11.098 7.03,-10.993 6.965,-10.854L-0.731,3.511C-0.86,3.791 -0.926,4.054 -0.926,4.298C-0.926,4.858 -0.682,5.312 -0.195,5.661L-0.049,5.766L0,5.766Z" style="fill:white;fill-rule:nonzero;"/>
            </g>
            <g transform="matrix(1,0,0,1,130.736,803.372)">
                <path d="M0,-27.944C0,-28.398 0.211,-28.626 0.633,-28.626C1.087,-28.626 1.315,-28.398 1.315,-27.944L1.315,-0C1.315,0.455 1.087,0.682 0.633,0.682C0.211,0.682 0,0.455 0,-0L0,-27.944Z" style="fill:white;fill-rule:nonzero;"/>
            </g>
            <g transform="matrix(1,0,0,1,156.697,802.639)">
                <path d="M0,-19.347C-0.942,-19.347 -1.843,-19.146 -2.703,-18.743C-3.564,-18.342 -4.319,-17.8 -4.968,-17.119C-5.618,-16.437 -6.137,-15.624 -6.526,-14.681C-6.917,-13.737 -7.111,-12.741 -7.111,-11.692L-7.111,-7.656C-7.111,-6.641 -6.925,-5.671 -6.551,-4.745C-6.178,-3.82 -5.667,-3.006 -5.017,-2.307C-4.368,-1.608 -3.613,-1.049 -2.751,-0.63C-1.892,-0.21 -0.974,0 0,0L3.751,0C4.725,0 5.643,-0.201 6.503,-0.604C7.363,-1.005 8.118,-1.555 8.768,-2.255C9.417,-2.954 9.929,-3.767 10.302,-4.694C10.675,-5.618 10.863,-6.607 10.863,-7.656L10.863,-11.692C10.863,-12.741 10.667,-13.728 10.278,-14.655C9.888,-15.58 9.369,-16.393 8.719,-17.093C8.07,-17.791 7.314,-18.342 6.455,-18.743C5.593,-19.146 4.692,-19.347 3.751,-19.347L0,-19.347ZM3.751,-20.762C4.887,-20.762 5.967,-20.518 6.99,-20.029C8.013,-19.538 8.906,-18.883 9.669,-18.063C10.432,-17.241 11.041,-16.28 11.496,-15.179C11.95,-14.078 12.178,-12.915 12.178,-11.692L12.178,-7.656C12.178,-6.432 11.95,-5.27 11.496,-4.168C11.041,-3.068 10.432,-2.107 9.669,-1.285C8.906,-0.463 8.013,0.191 6.99,0.68C5.967,1.171 4.887,1.415 3.751,1.415L0,1.415C-1.137,1.415 -2.216,1.171 -3.239,0.68C-4.262,0.191 -5.155,-0.463 -5.918,-1.285C-6.681,-2.107 -7.291,-3.068 -7.745,-4.168C-8.2,-5.27 -8.426,-6.432 -8.426,-7.656L-8.426,-11.692C-8.426,-12.915 -8.2,-14.078 -7.745,-15.179C-7.291,-16.28 -6.681,-17.241 -5.918,-18.063C-5.155,-18.883 -4.262,-19.538 -3.239,-20.029C-2.216,-20.518 -1.137,-20.762 0,-20.762L3.751,-20.762Z" style="fill:white;fill-rule:nonzero;"/>
            </g>
            <g transform="matrix(1,0,0,1,183.634,803.321)">
                <path d="M0,-20.71C0,-21.199 0.227,-21.443 0.682,-21.443C1.104,-21.443 1.315,-21.199 1.315,-20.71L1.315,-8.231C1.347,-7.183 1.559,-6.195 1.948,-5.27C2.338,-4.343 2.857,-3.539 3.507,-2.857C4.156,-2.177 4.903,-1.644 5.748,-1.259C6.592,-0.874 7.484,-0.682 8.426,-0.682L10.18,-0.682C11.154,-0.682 12.072,-0.883 12.932,-1.285C13.792,-1.687 14.547,-2.236 15.197,-2.937C15.847,-3.636 16.358,-4.448 16.731,-5.375C17.105,-6.3 17.292,-7.288 17.292,-8.337L17.292,-20.71C17.292,-21.199 17.503,-21.443 17.925,-21.443C18.379,-21.443 18.607,-21.199 18.607,-20.71L18.607,-8.231C18.574,-7.008 18.331,-5.855 17.876,-4.772C17.421,-3.688 16.821,-2.735 16.074,-1.914C15.327,-1.092 14.442,-0.446 13.419,0.025C12.397,0.498 11.316,0.733 10.18,0.733L8.426,0.733C7.29,0.733 6.21,0.498 5.187,0.025C4.165,-0.446 3.279,-1.092 2.533,-1.914C1.785,-2.735 1.185,-3.688 0.73,-4.772C0.275,-5.855 0.032,-7.008 0,-8.231L0,-20.71Z" style="fill:white;fill-rule:nonzero;"/>
            </g>
            <g transform="matrix(1,0,0,1,236.824,782.612)">
                <path d="M0,20.708C0,21.198 -0.228,21.442 -0.682,21.442C-1.104,21.442 -1.315,21.198 -1.315,20.708L-1.315,8.336C-1.315,7.287 -1.51,6.3 -1.9,5.373C-2.29,4.447 -2.809,3.635 -3.458,2.935C-4.108,2.236 -4.863,1.686 -5.723,1.284C-6.584,0.882 -7.485,0.681 -8.427,0.681L-12.178,0.681C-13.12,0.681 -14.021,0.882 -14.881,1.284C-15.742,1.686 -16.488,2.228 -17.121,2.908C-17.755,3.591 -18.266,4.386 -18.656,5.295C-19.045,6.204 -19.257,7.165 -19.289,8.178L-19.289,20.708C-19.289,21.198 -19.5,21.442 -19.922,21.442C-20.377,21.442 -20.604,21.198 -20.604,20.708L-20.604,8.23C-20.572,7.008 -20.329,5.854 -19.874,4.77C-19.419,3.687 -18.819,2.734 -18.071,1.912C-17.325,1.092 -16.439,0.444 -15.417,-0.026C-14.394,-0.499 -13.314,-0.734 -12.178,-0.734L-8.427,-0.734C-7.291,-0.734 -6.21,-0.49 -5.187,-0.001C-4.165,0.489 -3.272,1.136 -2.509,1.938C-1.746,2.743 -1.137,3.695 -0.682,4.796C-0.228,5.897 0,7.043 0,8.23L0,20.708Z" style="fill:white;fill-rule:nonzero;"/>
            </g>
            <g transform="matrix(1,0,0,1,260.107,814.593)">
                <path d="M0,-31.301C-0.942,-31.301 -1.835,-31.109 -2.679,-30.724C-3.524,-30.339 -4.262,-29.807 -4.896,-29.125C-5.528,-28.444 -6.032,-27.649 -6.405,-26.739C-6.779,-25.83 -6.965,-24.853 -6.965,-23.804C-6.965,-22.789 -6.779,-21.828 -6.405,-20.92C-6.032,-20.01 -5.528,-19.216 -4.896,-18.534C-4.262,-17.853 -3.524,-17.32 -2.679,-16.936C-1.835,-16.55 -0.942,-16.359 0,-16.359L3.653,-16.359C4.562,-16.359 5.439,-16.55 6.283,-16.936C7.127,-17.32 7.875,-17.853 8.524,-18.534C9.174,-19.216 9.685,-20.002 10.059,-20.894C10.432,-21.785 10.619,-22.755 10.619,-23.804C10.619,-24.853 10.432,-25.83 10.059,-26.739C9.685,-27.649 9.174,-28.444 8.524,-29.125C7.875,-29.807 7.127,-30.339 6.283,-30.724C5.439,-31.109 4.562,-31.301 3.653,-31.301L0,-31.301ZM2.101,-14.944C1.741,-14.944 1.407,-14.857 1.098,-14.686C0.788,-14.514 0.633,-14.19 0.633,-13.71C0.633,-13.333 0.747,-13.026 0.974,-12.785C1.201,-12.546 1.478,-12.427 1.802,-12.427C2.679,-12.427 3.507,-12.242 4.286,-11.874C5.066,-11.505 5.748,-11.015 6.333,-10.4C6.917,-9.786 7.379,-9.059 7.721,-8.216C8.062,-7.374 8.232,-6.48 8.232,-5.532C8.232,-4.585 8.062,-3.691 7.721,-2.848C7.379,-2.006 6.917,-1.27 6.333,-0.638C5.748,-0.007 5.066,0.493 4.286,0.862C3.507,1.231 2.679,1.415 1.802,1.415C0.925,1.415 0.097,1.231 -0.682,0.864C-1.461,0.498 -2.143,-0.001 -2.728,-0.63C-3.313,-1.259 -3.775,-1.993 -4.116,-2.831C-4.457,-3.671 -4.627,-4.562 -4.627,-5.506C-4.627,-5.961 -4.4,-6.188 -3.945,-6.188C-3.524,-6.188 -3.313,-5.961 -3.313,-5.506C-3.313,-4.738 -3.183,-4.021 -2.922,-3.357C-2.663,-2.693 -2.298,-2.107 -1.826,-1.6C-1.356,-1.093 -0.812,-0.7 -0.195,-0.42C0.421,-0.141 1.087,-0.001 1.802,-0.001C2.516,-0.001 3.182,-0.141 3.799,-0.42C4.416,-0.7 4.952,-1.093 5.407,-1.6C5.861,-2.107 6.227,-2.693 6.503,-3.357C6.778,-4.021 6.917,-4.738 6.917,-5.506C6.917,-6.276 6.778,-6.992 6.503,-7.655C6.227,-8.32 5.861,-8.897 5.407,-9.386C4.952,-9.876 4.416,-10.269 3.799,-10.566C3.182,-10.863 2.516,-11.011 1.802,-11.011C1.12,-11.011 0.536,-11.264 0.049,-11.771C-0.438,-12.278 -0.682,-12.916 -0.682,-13.685C-0.682,-13.964 -0.65,-14.192 -0.584,-14.366C-0.52,-14.54 -0.438,-14.715 -0.341,-14.891L-1.12,-14.995C-2.127,-15.135 -3.069,-15.468 -3.945,-15.991C-4.822,-16.516 -5.577,-17.171 -6.21,-17.958C-6.844,-18.744 -7.348,-19.644 -7.72,-20.658C-8.094,-21.671 -8.281,-22.72 -8.281,-23.804C-8.281,-25.027 -8.062,-26.181 -7.622,-27.264C-7.183,-28.347 -6.58,-29.29 -5.815,-30.096C-5.051,-30.899 -4.171,-31.537 -3.178,-32.008C-2.186,-32.481 -1.12,-32.716 0.02,-32.716L3.682,-32.716C4.789,-32.716 5.847,-32.481 6.856,-32.008C7.865,-31.537 8.744,-30.899 9.493,-30.096C10.242,-29.29 10.835,-28.347 11.275,-27.264C11.714,-26.181 11.934,-25.027 11.934,-23.804C11.934,-22.614 11.721,-21.479 11.298,-20.396C10.874,-19.312 10.287,-18.368 9.537,-17.565C8.493,-16.446 7.376,-15.73 6.186,-15.415C4.995,-15.1 3.633,-14.944 2.101,-14.944" style="fill:white;fill-rule:nonzero;"/>
            </g>
            <g transform="matrix(1,0,0,1,306.236,794.983)">
                <path d="M0,-4.036C0,-5.085 -0.187,-6.072 -0.561,-6.999C-0.935,-7.925 -1.446,-8.737 -2.095,-9.437C-2.745,-10.136 -3.5,-10.686 -4.36,-11.088C-5.221,-11.49 -6.138,-11.691 -7.111,-11.691L-10.863,-11.691C-11.804,-11.691 -12.706,-11.49 -13.566,-11.088C-14.427,-10.686 -15.182,-10.136 -15.831,-9.437C-16.481,-8.737 -17,-7.925 -17.39,-6.999C-17.779,-6.072 -17.975,-5.085 -17.975,-4.036L-17.975,-0.472L0,-0.472L0,-4.036ZM-17.341,3.094C-16.789,4.492 -15.912,5.602 -14.71,6.423C-13.51,7.245 -12.226,7.655 -10.863,7.655L-1.803,7.655C-1.381,7.655 -1.169,7.883 -1.169,8.336C-1.169,8.826 -1.381,9.07 -1.803,9.07L-10.863,9.07C-12.097,9.07 -13.225,8.809 -14.248,8.283C-15.271,7.76 -16.156,7.07 -16.902,6.213C-17.65,5.358 -18.235,4.353 -18.656,3.198C-19.079,2.045 -19.29,0.839 -19.29,-0.419L-19.29,-4.036C-19.29,-5.26 -19.063,-6.423 -18.607,-7.523C-18.153,-8.624 -17.544,-9.585 -16.781,-10.407C-16.019,-11.227 -15.125,-11.883 -14.102,-12.373C-13.079,-12.862 -12,-13.106 -10.863,-13.106L-7.111,-13.106C-5.976,-13.106 -4.896,-12.862 -3.873,-12.373C-2.85,-11.883 -1.957,-11.227 -1.193,-10.407C-0.431,-9.585 0.178,-8.624 0.633,-7.523C1.088,-6.423 1.315,-5.26 1.315,-4.036L1.315,-0.367C1.315,0.019 1.2,0.333 0.974,0.577C0.746,0.822 0.471,0.943 0.146,0.943L-18.217,0.943L-17.341,3.094Z" style="fill:white;fill-rule:nonzero;"/>
            </g>
            <g transform="matrix(0.24,0,0,0.24,0,0)">
                <path d="M410.64,3472.79C247.965,3472.79 115.615,3340.45 115.615,3177.77C115.615,3015.09 247.965,2882.74 410.64,2882.74C513.77,2882.74 607.749,2935.39 662.032,3023.56L665.94,3029.91L628.282,3029.91L627.04,3028.12C577.695,2956.99 496.799,2914.52 410.64,2914.52C265.486,2914.52 147.39,3032.62 147.39,3177.77C147.39,3322.93 265.486,3441.01 410.64,3441.01C465.386,3441.01 517.957,3424.23 562.678,3392.47L563.761,3391.7L613.79,3391.7L605.524,3398.99C551.565,3446.58 482.353,3472.79 410.64,3472.79ZM410.64,2891.08C252.561,2891.08 123.949,3019.69 123.949,3177.77C123.949,3335.85 252.561,3464.46 410.64,3464.46C476.57,3464.46 540.324,3441.66 591.411,3400.03L566.415,3400.03C520.515,3432.3 466.678,3449.35 410.64,3449.35C260.89,3449.35 139.057,3327.52 139.057,3177.77C139.057,3028.01 260.89,2906.19 410.64,2906.19C498.803,2906.19 581.624,2949.28 632.636,3021.58L650.915,3021.58C597.615,2939.72 508.353,2891.08 410.64,2891.08ZM388.812,3193.78L391.705,3191.5L398.539,3204.67L404.185,3202.78L404.185,3077.14C404.185,3077.14 320.051,3069.37 327.343,3056.39C334.639,3043.42 399.364,3039.35 399.364,3039.35C402.318,2995.12 390.493,2994.84 390.493,2994.84L390.493,2989.78C390.493,2989.78 380.597,2984.1 380.597,2978.88C380.597,2973.66 385.514,2971.6 385.514,2971.6C388.497,2945.12 403.514,2947.08 403.514,2947.08C403.626,2945.73 406.964,2944.14 406.964,2944.14L414.318,2944.14C414.318,2944.14 417.655,2945.73 417.768,2947.08C417.768,2947.08 432.785,2945.12 435.785,2971.6C435.785,2971.6 440.701,2973.66 440.701,2978.88C440.701,2984.1 430.789,2989.78 430.789,2989.78L430.789,2994.84C430.789,2994.84 418.964,2995.12 421.93,3039.35C421.93,3039.35 486.66,3043.42 493.955,3056.39C501.235,3069.37 417.114,3077.14 417.114,3077.14L417.114,3202.78L422.764,3204.67L429.576,3191.5L441.818,3201.14L431.218,3211.5L434.047,3213.84L434.047,3248.99L431.139,3248.99L431.139,3259.74L429.53,3259.74L429.13,3272.11C429.13,3272.11 429.033,3279.67 430.142,3290.42C455.283,3294.98 473.689,3301.64 480.951,3308.9C487.597,3315.55 492.405,3329.39 487.272,3344.08C485.341,3349.61 481.368,3356.84 473.225,3363.92C501.168,3376.8 516.872,3379.26 518.343,3381.03C519.997,3383.03 501.314,3395.97 482.926,3401.08C464.543,3406.17 439.726,3410.71 426.48,3411.2C413.235,3411.65 410.647,3411.2 410.647,3411.2C410.647,3411.2 408.064,3411.65 394.818,3411.2C381.572,3410.71 356.755,3406.17 338.372,3401.08C319.989,3395.97 301.28,3383.03 302.943,3381.03C303.891,3379.9 310.651,3378.49 322.709,3374.24C282.727,3354.01 259.444,3317.85 245.71,3296.53C225.11,3264.54 187.005,3153.02 206.201,3103.81C211.314,3090.7 220.01,3082.46 232.043,3079.33C260.026,3072.04 294.472,3088.61 334.41,3128.58C347.222,3141.39 366.666,3162.79 388.812,3193.78ZM1091.29,3400.91C1087.53,3400.91 1083.92,3400.11 1080.56,3398.54C1077.24,3396.97 1074.27,3394.81 1071.77,3392.11C1069.28,3389.43 1067.27,3386.25 1065.82,3382.67C1064.36,3379.08 1063.62,3375.23 1063.62,3371.2C1063.62,3368.84 1064.98,3367.48 1067.34,3367.48C1069.58,3367.48 1070.86,3368.84 1070.86,3371.2C1070.86,3374.28 1071.38,3377.18 1072.42,3379.83C1073.46,3382.48 1074.93,3384.85 1076.81,3386.88C1078.68,3388.88 1080.88,3390.47 1083.34,3391.59C1088.21,3393.8 1094.35,3393.8 1099.25,3391.59C1101.69,3390.48 1103.85,3388.89 1105.66,3386.89C1107.47,3384.86 1108.96,3382.48 1110.06,3379.81C1111.16,3377.16 1111.72,3374.26 1111.72,3371.2C1111.72,3368.13 1111.16,3365.23 1110.06,3362.58C1108.96,3359.92 1107.48,3357.58 1105.66,3355.63C1103.86,3353.68 1101.69,3352.09 1099.23,3350.91C1096.79,3349.74 1094.11,3349.14 1091.29,3349.14C1088.21,3349.14 1085.54,3347.98 1083.35,3345.7C1081.17,3343.43 1080.06,3340.54 1080.06,3337.12C1080.06,3335.83 1080.21,3334.81 1080.52,3333.97C1080.66,3333.59 1080.83,3333.2 1081.01,3332.8L1079,3332.53C1074.71,3331.93 1070.63,3330.5 1066.89,3328.26C1063.16,3326.03 1059.91,3323.2 1057.22,3319.87C1054.53,3316.53 1052.36,3312.66 1050.79,3308.37C1049.2,3304.07 1048.4,3299.56 1048.4,3294.95C1048.4,3289.76 1049.34,3284.81 1051.21,3280.21C1053.07,3275.62 1055.66,3271.56 1058.91,3268.14C1062.16,3264.72 1065.95,3261.98 1070.16,3259.98C1074.39,3257.96 1079.01,3256.94 1083.86,3256.94L1099.12,3256.94C1103.84,3256.94 1108.42,3257.96 1112.72,3259.98C1117,3261.97 1120.79,3264.72 1123.98,3268.14C1127.15,3271.56 1129.71,3275.61 1131.57,3280.21C1133.44,3284.81 1134.38,3289.78 1134.38,3294.95C1134.38,3299.99 1133.47,3304.88 1131.67,3309.48C1129.88,3314.08 1127.34,3318.14 1124.16,3321.56C1119.72,3326.31 1114.88,3329.41 1109.78,3330.76C1104.78,3332.08 1098.97,3332.75 1092.54,3332.75C1091.2,3332.75 1089.94,3333.08 1088.78,3333.72C1087.78,3334.27 1087.3,3335.35 1087.3,3337.01C1087.3,3338.36 1087.68,3339.42 1088.48,3340.26C1089.26,3341.08 1090.18,3341.48 1091.29,3341.48C1095.06,3341.48 1098.66,3342.29 1102.01,3343.87C1105.36,3345.45 1108.31,3347.58 1110.8,3350.2C1113.3,3352.83 1115.31,3355.98 1116.77,3359.58C1118.22,3363.17 1118.96,3367.04 1118.96,3371.09C1118.96,3375.13 1118.22,3379 1116.77,3382.6C1115.31,3386.19 1113.31,3389.38 1110.81,3392.08C1108.31,3394.78 1105.35,3396.95 1102.01,3398.53C1098.67,3400.11 1095.06,3400.91 1091.29,3400.91ZM1067.34,3369.23C1065.93,3369.23 1065.38,3369.78 1065.38,3371.2C1065.38,3374.99 1066.07,3378.63 1067.44,3382.01C1068.82,3385.39 1070.71,3388.39 1073.06,3390.91C1075.41,3393.45 1078.18,3395.47 1081.31,3396.94C1087.55,3399.88 1095.04,3399.88 1101.26,3396.94C1104.39,3395.45 1107.17,3393.42 1109.52,3390.88C1111.87,3388.34 1113.76,3385.33 1115.13,3381.94C1116.51,3378.56 1117.2,3374.9 1117.2,3371.09C1117.2,3367.28 1116.51,3363.62 1115.13,3360.23C1113.76,3356.85 1111.88,3353.88 1109.53,3351.41C1107.19,3348.95 1104.41,3346.95 1101.26,3345.45C1098.15,3343.98 1094.79,3343.24 1091.29,3343.24C1089.69,3343.24 1088.31,3342.64 1087.2,3341.47C1086.1,3340.31 1085.54,3338.81 1085.54,3337.01C1085.54,3334.68 1086.34,3333.06 1087.93,3332.18C1089.35,3331.39 1090.9,3331 1092.54,3331C1098.82,3331 1104.47,3330.34 1109.33,3329.06C1114.11,3327.8 1118.66,3324.87 1122.87,3320.36C1125.91,3317.11 1128.32,3313.23 1130.04,3308.83C1131.76,3304.44 1132.63,3299.77 1132.63,3294.95C1132.63,3290 1131.72,3285.26 1129.95,3280.87C1128.16,3276.48 1125.72,3272.6 1122.69,3269.34C1119.65,3266.08 1116.05,3263.47 1111.98,3261.56C1107.91,3259.66 1103.59,3258.7 1099.12,3258.7L1083.86,3258.7C1079.27,3258.7 1074.91,3259.66 1070.91,3261.56C1066.9,3263.47 1063.29,3266.08 1060.18,3269.35C1057.09,3272.61 1054.61,3276.49 1052.84,3280.87C1051.06,3285.25 1050.16,3289.99 1050.16,3294.95C1050.16,3299.35 1050.92,3303.66 1052.44,3307.76C1053.95,3311.87 1056.01,3315.57 1058.59,3318.76C1061.15,3321.94 1064.25,3324.63 1067.79,3326.75C1071.34,3328.87 1075.18,3330.23 1079.24,3330.79L1083.75,3331.39L1083.13,3332.52C1082.74,3333.22 1082.42,3333.92 1082.17,3334.59C1081.93,3335.21 1081.82,3336.06 1081.82,3337.12C1081.82,3340.12 1082.74,3342.53 1084.62,3344.49C1086.49,3346.43 1088.67,3347.38 1091.29,3347.38C1094.38,3347.38 1097.31,3348.03 1099.99,3349.32C1102.65,3350.61 1104.99,3352.33 1106.96,3354.43C1108.91,3356.54 1110.5,3359.05 1111.69,3361.91C1112.88,3364.77 1113.48,3367.9 1113.48,3371.2C1113.48,3374.49 1112.88,3377.62 1111.69,3380.49C1110.5,3383.34 1108.91,3385.88 1106.96,3388.06C1105,3390.25 1102.64,3391.98 1099.98,3393.18C1094.62,3395.61 1087.95,3395.61 1082.61,3393.18C1079.93,3391.98 1077.55,3390.25 1075.53,3388.07C1073.5,3385.89 1071.9,3383.33 1070.79,3380.48C1069.67,3377.62 1069.1,3374.5 1069.1,3371.2C1069.1,3369.57 1068.4,3369.23 1067.34,3369.23ZM382.231,3198.97L379.48,3201.14L390.06,3211.5L387.239,3213.84L387.239,3248.99L390.155,3248.99L390.155,3259.74L391.772,3259.74L392.168,3272.11C392.168,3272.11 392.237,3277.48 391.595,3285.6C366.842,3283.7 338.973,3283.65 310.355,3286.23L311.11,3294.57C340.67,3291.9 367.609,3292.02 390.778,3293.8C388.139,3315.69 380.518,3347.81 358.56,3358.86C349.206,3363.57 340.958,3367.2 333.873,3370.04C291.163,3351.63 266.762,3313.75 252.747,3291.99C232.135,3259.99 196.46,3151.82 214.001,3106.85C218.143,3096.23 224.735,3089.88 234.151,3087.43C258.714,3081.03 291.33,3097.31 328.489,3134.49C341.117,3147.13 360.321,3168.27 382.231,3198.97ZM431.234,3299.11C454.473,3303.63 469.935,3309.72 475.03,3314.82C479.885,3319.68 483.314,3330.03 479.368,3341.32C477.567,3346.47 473.605,3353.35 464.935,3359.97C464.206,3359.61 463.467,3359.24 462.722,3358.86C442.492,3348.68 434.437,3320.59 431.234,3299.11ZM547.371,3351.11C545.134,3351.11 543.855,3349.75 543.855,3347.39L543.855,3230.95C543.855,3228.59 545.134,3227.23 547.371,3227.23C549.734,3227.23 551.092,3228.59 551.092,3230.95L551.092,3347.39C551.092,3349.75 549.734,3351.11 547.371,3351.11ZM983.927,3351.11C982.615,3351.11 980.41,3350.59 980.41,3347.16L980.41,3295.61C980.41,3291.39 979.61,3287.34 978.04,3283.61C976.465,3279.87 974.335,3276.53 971.715,3273.7C969.098,3270.9 966.015,3268.65 962.548,3267.03C959.094,3265.41 955.431,3264.6 951.656,3264.6L936.027,3264.6C932.248,3264.6 928.585,3265.41 925.135,3267.03C921.669,3268.65 918.619,3270.86 916.073,3273.6C913.515,3276.35 911.419,3279.61 909.844,3283.29C908.265,3286.96 907.402,3290.9 907.277,3294.99L907.277,3347.16C907.277,3350.59 905.073,3351.11 903.756,3351.11C901.36,3351.11 900.04,3349.71 900.04,3347.16L900.04,3295.18C900.177,3289.97 901.223,3285.01 903.152,3280.42C905.077,3275.83 907.656,3271.74 910.823,3268.26C914.002,3264.76 917.819,3261.98 922.165,3259.97C926.519,3257.96 931.185,3256.94 936.027,3256.94L951.656,3256.94C956.502,3256.94 961.169,3258 965.535,3260.09C969.873,3262.16 973.71,3264.94 976.952,3268.36C980.19,3271.77 982.81,3275.86 984.735,3280.53C986.669,3285.2 987.648,3290.14 987.648,3295.18L987.648,3347.16C987.648,3349.71 986.327,3351.11 983.927,3351.11ZM668.535,3351.11L652.905,3351.11C648.051,3351.11 643.385,3350.05 639.03,3347.96C634.68,3345.88 630.839,3343.06 627.605,3339.57C624.364,3336.09 621.747,3331.96 619.826,3327.3C617.897,3322.63 616.918,3317.63 616.918,3312.43L616.918,3295.61C616.918,3290.42 617.897,3285.42 619.826,3280.75C621.747,3276.09 624.364,3271.96 627.605,3268.48C630.843,3264.99 634.685,3262.17 639.03,3260.08C643.397,3258 648.064,3256.94 652.905,3256.94L668.535,3256.94C673.38,3256.94 678.047,3258 682.414,3260.08C686.751,3262.16 690.593,3264.99 693.839,3268.48C697.072,3271.95 699.689,3276.09 701.614,3280.75C703.547,3285.43 704.526,3290.43 704.526,3295.61L704.526,3312.43C704.526,3317.62 703.547,3322.62 701.614,3327.3C699.689,3331.96 697.072,3336.09 693.839,3339.57C690.597,3343.06 686.755,3345.88 682.414,3347.96C678.055,3350.05 673.389,3351.11 668.535,3351.11ZM807.56,3351.11L800.252,3351.11C795.41,3351.11 790.743,3350.09 786.385,3348.07C782.027,3346.07 778.214,3343.28 775.043,3339.78C771.881,3336.31 769.298,3332.22 767.372,3327.62C765.448,3323.03 764.397,3318.08 764.26,3312.89L764.26,3260.88C764.26,3258.34 765.581,3256.94 767.981,3256.94C770.218,3256.94 771.497,3258.38 771.497,3260.88L771.497,3312.87C771.627,3317.08 772.493,3321.12 774.068,3324.88C775.647,3328.62 777.772,3331.91 780.389,3334.66C783.006,3337.4 786.056,3339.58 789.452,3341.12C792.835,3342.66 796.468,3343.45 800.252,3343.45L807.56,3343.45C811.468,3343.45 815.202,3342.63 818.652,3341.02C822.118,3339.4 825.202,3337.16 827.818,3334.33C830.439,3331.52 832.531,3328.19 834.039,3324.44C835.548,3320.71 836.31,3316.67 836.31,3312.43L836.31,3260.88C836.31,3257.45 838.514,3256.94 839.827,3256.94C842.227,3256.94 843.548,3258.34 843.548,3260.88L843.548,3312.87C843.41,3318.08 842.364,3323.03 840.435,3327.62C838.506,3332.22 835.927,3336.31 832.768,3339.78C829.593,3343.28 825.777,3346.07 821.427,3348.07C817.068,3350.09 812.402,3351.11 807.56,3351.11ZM1268.47,3351.1L1230.72,3351.1C1225.46,3351.1 1220.58,3349.97 1216.21,3347.73C1211.87,3345.5 1208.06,3342.53 1204.89,3338.9C1201.72,3335.26 1199.21,3330.94 1197.43,3326.06C1195.64,3321.18 1194.73,3316.01 1194.73,3310.69L1194.73,3295.61C1194.73,3290.41 1195.71,3285.41 1197.64,3280.75C1199.57,3276.09 1202.18,3271.95 1205.42,3268.47C1208.66,3264.99 1212.5,3262.17 1216.85,3260.08C1221.21,3258 1225.88,3256.94 1230.72,3256.94L1246.35,3256.94C1251.19,3256.94 1255.87,3258 1260.22,3260.08C1264.57,3262.16 1268.41,3264.99 1271.65,3268.47C1274.89,3271.95 1277.51,3276.09 1279.44,3280.75C1281.37,3285.42 1282.35,3290.42 1282.35,3295.61L1282.35,3310.9C1282.35,3312.72 1281.79,3314.25 1280.69,3315.43C1279.57,3316.63 1278.19,3317.24 1276.59,3317.24L1201.39,3317.24L1204.55,3325C1206.77,3330.63 1210.35,3335.17 1215.19,3338.47C1220.02,3341.78 1225.24,3343.45 1230.72,3343.45L1268.47,3343.45C1270.71,3343.45 1272,3344.8 1272,3347.17C1272,3350.59 1269.79,3351.1 1268.47,3351.1ZM547.371,3228.99C546.317,3228.99 545.613,3229.32 545.613,3230.95L545.613,3347.39C545.613,3349.01 546.317,3349.35 547.371,3349.35C548.784,3349.35 549.334,3348.8 549.334,3347.39L549.334,3230.95C549.334,3229.54 548.784,3228.99 547.371,3228.99ZM936.027,3262.84L951.656,3262.84C955.69,3262.84 959.606,3263.71 963.294,3265.43C966.965,3267.15 970.231,3269.53 973.002,3272.51C975.765,3275.49 978.006,3278.99 979.665,3282.93C981.323,3286.88 982.169,3291.15 982.169,3295.61L982.169,3347.16C982.169,3348.98 982.869,3349.35 983.927,3349.35C985.323,3349.35 985.89,3348.71 985.89,3347.16L985.89,3295.39C985.89,3290.36 984.956,3285.67 983.115,3281.2C981.269,3276.74 978.765,3272.82 975.681,3269.56C972.585,3266.31 968.919,3263.65 964.773,3261.67C960.652,3259.7 956.235,3258.7 951.656,3258.7L936.027,3258.7C931.44,3258.7 927.023,3259.66 922.902,3261.56C918.769,3263.47 915.144,3266.12 912.123,3269.44C909.094,3272.78 906.619,3276.69 904.773,3281.1C902.927,3285.49 901.927,3290.24 901.798,3295.2L901.798,3347.16C901.798,3348.98 902.581,3349.35 903.756,3349.35C904.673,3349.35 905.519,3349.08 905.519,3347.16L905.519,3294.95C905.652,3290.63 906.565,3286.48 908.227,3282.59C909.885,3278.73 912.09,3275.31 914.785,3272.41C917.49,3269.5 920.723,3267.15 924.394,3265.43C928.077,3263.71 931.994,3262.84 936.027,3262.84ZM652.905,3258.7C648.326,3258.7 643.914,3259.7 639.789,3261.67C635.647,3263.65 631.98,3266.35 628.893,3269.67C625.797,3273 623.293,3276.95 621.447,3281.42C619.605,3285.88 618.676,3290.65 618.676,3295.61L618.676,3312.43C618.676,3317.4 619.605,3322.16 621.447,3326.63C623.293,3331.1 625.797,3335.05 628.893,3338.38C631.976,3341.7 635.639,3344.39 639.789,3346.38C643.905,3348.35 648.318,3349.35 652.905,3349.35L668.535,3349.35C673.126,3349.35 677.539,3348.35 681.651,3346.38C685.793,3344.39 689.46,3341.7 692.551,3338.38C695.639,3335.05 698.143,3331.1 699.993,3326.63C701.835,3322.16 702.768,3317.39 702.768,3312.43L702.768,3295.61C702.768,3290.66 701.835,3285.88 699.993,3281.42C698.143,3276.95 695.639,3273 692.551,3269.67C689.455,3266.35 685.793,3263.65 681.651,3261.67C677.526,3259.7 673.114,3258.7 668.535,3258.7L652.905,3258.7ZM767.981,3258.7C766.589,3258.7 766.018,3259.33 766.018,3260.88L766.018,3312.65C766.152,3317.82 767.152,3322.56 768.997,3326.95C770.843,3331.36 773.314,3335.28 776.343,3338.61C779.352,3341.92 782.981,3344.57 787.122,3346.48C791.247,3348.38 795.664,3349.35 800.252,3349.35L807.56,3349.35C812.147,3349.35 816.564,3348.38 820.685,3346.48C824.827,3344.57 828.452,3341.92 831.464,3338.61C834.489,3335.28 836.964,3331.36 838.814,3326.95C840.656,3322.56 841.66,3317.82 841.789,3312.85L841.789,3260.88C841.789,3259.33 841.223,3258.7 839.827,3258.7C838.914,3258.7 838.068,3258.96 838.068,3260.88L838.068,3312.43C838.068,3316.9 837.26,3321.16 835.673,3325.11C834.081,3329.05 831.872,3332.56 829.106,3335.53C826.335,3338.51 823.068,3340.9 819.393,3342.61C815.71,3344.33 811.727,3345.21 807.56,3345.21L800.252,3345.21C796.214,3345.21 792.339,3344.38 788.727,3342.72C785.122,3341.08 781.889,3338.78 779.118,3335.87C776.352,3332.97 774.11,3329.5 772.448,3325.56C770.785,3321.61 769.877,3317.35 769.743,3312.9L769.743,3260.88C769.743,3258.96 768.897,3258.7 767.981,3258.7ZM1230.72,3258.7C1226.14,3258.7 1221.73,3259.7 1217.61,3261.67C1213.46,3263.66 1209.8,3266.35 1206.71,3269.67C1203.62,3273 1201.11,3276.95 1199.27,3281.42C1197.42,3285.87 1196.49,3290.65 1196.49,3295.61L1196.49,3310.69C1196.49,3315.8 1197.36,3320.78 1199.08,3325.46C1200.79,3330.14 1203.19,3334.27 1206.22,3337.75C1209.24,3341.2 1212.87,3344.04 1217.02,3346.16C1221.14,3348.28 1225.75,3349.35 1230.72,3349.35L1268.47,3349.35C1269.39,3349.35 1270.24,3349.08 1270.24,3347.17C1270.24,3345.54 1269.53,3345.21 1268.47,3345.21L1230.72,3345.21C1224.88,3345.21 1219.32,3343.43 1214.19,3339.92C1209.07,3336.41 1205.27,3331.62 1202.92,3325.65L1198.77,3315.48L1276.59,3315.48C1277.7,3315.48 1278.62,3315.08 1279.4,3314.24C1280.19,3313.38 1280.59,3312.29 1280.59,3310.9L1280.59,3295.61C1280.59,3290.65 1279.65,3285.88 1277.81,3281.42C1275.96,3276.95 1273.46,3273 1270.37,3269.67C1267.28,3266.35 1263.61,3263.65 1259.46,3261.67C1255.35,3259.7 1250.93,3258.7 1246.35,3258.7L1230.72,3258.7ZM668.535,3345.21L652.905,3345.21C648.735,3345.21 644.747,3344.29 641.055,3342.49C637.38,3340.71 634.122,3338.29 631.36,3335.31C628.593,3332.34 626.385,3328.83 624.793,3324.89C623.205,3320.95 622.397,3316.76 622.397,3312.43L622.397,3295.61C622.397,3291.15 623.239,3286.85 624.897,3282.82C626.555,3278.81 628.801,3275.3 631.568,3272.39C634.335,3269.49 637.601,3267.15 641.272,3265.43C644.955,3263.71 648.872,3262.84 652.905,3262.84L668.535,3262.84C672.568,3262.84 676.485,3263.71 680.172,3265.43C683.843,3267.15 687.11,3269.53 689.88,3272.51C692.643,3275.49 694.885,3278.99 696.543,3282.93C698.201,3286.88 699.043,3291.15 699.043,3295.61L699.043,3312.43C699.043,3316.9 698.239,3321.16 696.647,3325.1C695.06,3329.05 692.847,3332.56 690.085,3335.53C687.314,3338.51 684.047,3340.9 680.372,3342.61C676.689,3344.33 672.701,3345.21 668.535,3345.21ZM652.905,3264.6C649.126,3264.6 645.464,3265.41 642.014,3267.03C638.543,3268.65 635.455,3270.86 632.843,3273.61C630.222,3276.36 628.097,3279.68 626.522,3283.49C624.951,3287.3 624.155,3291.38 624.155,3295.61L624.155,3312.43C624.155,3316.53 624.918,3320.5 626.426,3324.23C627.935,3327.98 630.026,3331.31 632.647,3334.12C635.26,3336.93 638.347,3339.22 641.826,3340.91C645.272,3342.6 649.001,3343.45 652.905,3343.45L668.535,3343.45C672.443,3343.45 676.176,3342.63 679.63,3341.02C683.097,3339.4 686.176,3337.16 688.797,3334.33C691.414,3331.52 693.51,3328.19 695.014,3324.44C696.522,3320.71 697.289,3316.67 697.289,3312.43L697.289,3295.61C697.289,3291.38 696.489,3287.34 694.918,3283.61C693.343,3279.87 691.214,3276.53 688.593,3273.71C685.976,3270.9 682.893,3268.65 679.426,3267.03C675.972,3265.41 672.31,3264.6 668.535,3264.6L652.905,3264.6ZM1099,3326.86L1083.78,3326.86C1079.74,3326.86 1075.86,3326.02 1072.25,3324.38C1068.65,3322.73 1065.45,3320.42 1062.74,3317.51C1060.04,3314.6 1057.86,3311.17 1056.28,3307.31C1054.69,3303.43 1053.88,3299.28 1053.88,3294.95C1053.88,3290.49 1054.69,3286.26 1056.28,3282.39C1057.86,3278.53 1060.04,3275.09 1062.74,3272.18C1065.44,3269.28 1068.64,3266.96 1072.25,3265.32C1075.87,3263.67 1079.74,3262.84 1083.78,3262.84L1099,3262.84C1102.9,3262.84 1106.71,3263.67 1110.33,3265.32C1113.93,3266.96 1117.17,3269.27 1119.93,3272.18C1122.7,3275.08 1124.91,3278.51 1126.51,3282.39C1128.1,3286.27 1128.91,3290.5 1128.91,3294.95C1128.91,3299.42 1128.1,3303.61 1126.5,3307.42C1124.91,3311.22 1122.7,3314.62 1119.93,3317.52C1117.16,3320.43 1113.93,3322.73 1110.33,3324.38C1106.72,3326.02 1102.91,3326.86 1099,3326.86ZM1083.78,3264.6C1080,3264.6 1076.36,3265.38 1072.98,3266.92C1069.59,3268.47 1066.57,3270.64 1064.03,3273.38C1061.47,3276.14 1059.41,3279.39 1057.91,3283.06C1056.4,3286.72 1055.64,3290.72 1055.64,3294.95C1055.64,3299.05 1056.4,3302.98 1057.91,3306.64C1059.41,3310.31 1061.47,3313.56 1064.03,3316.31C1066.58,3319.06 1069.59,3321.23 1072.98,3322.78C1076.36,3324.31 1079.99,3325.1 1083.78,3325.1L1099,3325.1C1102.66,3325.1 1106.22,3324.31 1109.6,3322.78C1112.99,3321.23 1116.04,3319.05 1118.66,3316.3C1121.28,3313.56 1123.37,3310.34 1124.88,3306.74C1126.38,3303.15 1127.15,3299.19 1127.15,3294.95C1127.15,3290.73 1126.38,3286.73 1124.88,3283.06C1123.37,3279.39 1121.28,3276.13 1118.66,3273.39C1116.05,3270.65 1113,3268.48 1109.6,3266.92C1106.21,3265.38 1102.65,3264.6 1099,3264.6L1083.78,3264.6ZM1276.87,3311.35L1200.21,3311.35L1200.21,3295.61C1200.21,3291.15 1201.06,3286.88 1202.72,3282.93C1204.38,3278.99 1206.62,3275.48 1209.38,3272.52C1212.15,3269.53 1215.41,3267.15 1219.09,3265.43C1222.77,3263.71 1226.69,3262.84 1230.72,3262.84L1246.35,3262.84C1250.52,3262.84 1254.5,3263.71 1258.19,3265.43C1261.86,3267.15 1265.12,3269.53 1267.89,3272.52C1270.66,3275.49 1272.87,3279 1274.46,3282.94C1276.06,3286.9 1276.87,3291.16 1276.87,3295.61L1276.87,3311.35ZM1201.97,3309.59L1275.11,3309.59L1275.11,3295.61C1275.11,3291.39 1274.34,3287.35 1272.84,3283.6C1271.32,3279.85 1269.23,3276.53 1266.61,3273.71C1264,3270.89 1260.91,3268.65 1257.44,3267.03C1254,3265.41 1250.26,3264.6 1246.35,3264.6L1230.72,3264.6C1226.95,3264.6 1223.28,3265.41 1219.83,3267.03C1216.37,3268.65 1213.29,3270.89 1210.67,3273.71C1208.05,3276.53 1205.92,3279.86 1204.34,3283.61C1202.77,3287.35 1201.97,3291.39 1201.97,3295.61L1201.97,3309.59ZM676.604,3198.31L623.633,3198.31C619.895,3198.31 617.479,3195.81 617.479,3191.95C617.479,3188.49 619.62,3185.99 623.058,3185.42L623.633,3185.37L676.604,3185.37C680.258,3185.37 683.75,3184.61 686.987,3183.09C690.295,3181.53 693.25,3179.4 695.775,3176.74C698.3,3174.09 700.354,3170.89 701.875,3167.22C703.383,3163.6 704.145,3159.64 704.145,3155.47C704.145,3151.42 703.408,3147.52 701.958,3143.88C700.5,3140.22 698.479,3136.98 695.95,3134.27C693.429,3131.56 690.479,3129.4 687.187,3127.85C683.958,3126.33 680.537,3125.56 677.012,3125.56L623.633,3125.56C619.895,3125.56 617.479,3122.97 617.479,3118.98C617.479,3115.18 619.954,3112.63 623.633,3112.63L676.812,3112.63C678.62,3112.63 680.304,3112.26 681.962,3111.52C683.616,3110.78 685.02,3109.73 686.262,3108.35C687.55,3106.89 688.608,3105.2 689.4,3103.31C690.158,3101.5 690.545,3099.49 690.545,3097.36C690.545,3093 689.191,3089.42 686.408,3086.42L685.675,3085.62L684.77,3085.03C682.27,3083.05 679.604,3082.08 676.604,3082.08L623.633,3082.08C619.895,3082.08 617.479,3079.5 617.479,3075.51C617.479,3071.71 619.954,3069.16 623.633,3069.16L676.604,3069.16C683.487,3069.16 689.57,3071.7 694.695,3076.71L695.416,3077.49C700.487,3082.94 703.054,3089.63 703.054,3097.36C703.054,3104.76 700.512,3111.41 695.487,3117.15L695.137,3117.55C701.695,3121.31 706.933,3126.52 710.704,3133.07C714.654,3139.91 716.654,3147.45 716.654,3155.47C716.654,3161.29 715.575,3166.85 713.445,3171.99C711.329,3177.1 708.437,3181.64 704.854,3185.49C701.25,3189.37 697.004,3192.5 692.229,3194.79C687.383,3197.12 682.129,3198.31 676.604,3198.31ZM551.078,3198.3C547.278,3198.3 544.824,3195.8 544.824,3191.95L544.824,3082.08L532.916,3082.08C529.174,3082.08 526.762,3079.5 526.762,3075.51C526.762,3073.59 527.507,3071.93 528.866,3070.82C529.882,3070 531.095,3069.47 532.491,3069.22C533.616,3069.01 534.774,3068.96 535.941,3069.05C536.724,3069.12 537.399,3069.16 537.987,3069.16L545.903,3069.16C546.495,3069.16 547.182,3069.12 547.966,3069.06C549.153,3068.95 550.324,3069.01 551.458,3069.21C552.882,3069.45 554.108,3069.97 555.124,3070.76C556.553,3071.88 557.333,3073.57 557.333,3075.51L557.333,3191.95C557.333,3195.8 554.878,3198.3 551.078,3198.3ZM850.135,3198.3C846.398,3198.3 843.981,3195.81 843.981,3191.95L843.981,3154.83L780.927,3154.83C778.448,3154.83 776.11,3154.24 773.981,3153.1L773.594,3152.89C771.052,3151.23 769.29,3149.28 768.065,3146.93C766.856,3144.6 766.248,3142.11 766.248,3139.52C766.248,3138.05 766.427,3136.65 766.79,3135.39C767.098,3134.33 767.469,3133.23 767.919,3132.11L768.085,3131.74L800.156,3072.1C801.448,3069.99 803.302,3068.94 805.485,3068.94C807.119,3068.94 808.644,3069.6 809.777,3070.82C810.865,3072 811.435,3073.46 811.435,3075.07C811.435,3075.91 811.206,3076.77 810.702,3077.87L778.544,3137.9C778.315,3138.41 778.148,3139.03 778.148,3139.52C778.148,3140.35 778.335,3141.33 779.698,3142.32C780.594,3142.55 780.919,3142.56 780.931,3142.56L843.981,3142.56L843.981,3087.97C843.981,3083.97 846.398,3081.39 850.135,3081.39C851.99,3081.39 853.669,3082.19 854.873,3083.65C855.931,3084.94 856.49,3086.43 856.49,3087.97L856.49,3191.95C856.49,3195.81 853.994,3198.3 850.135,3198.3ZM682.045,3118.95C682.554,3119.03 683.054,3119.12 683.55,3119.23L684.704,3117.99C683.833,3118.38 682.945,3118.69 682.045,3118.95Z" style="fill:white;"/>
            </g>
        </g>
    </g>
</svg>
